<svg width="43" height="43" viewBox="0 0 43 43" fill="none" xmlns="http://www.w3.org/2000/svg">
<path opacity="0.2" fill-rule="evenodd" clip-rule="evenodd" d="M22.5 32.75C29.2655 32.75 34.75 27.2655 34.75 20.5C34.75 13.7345 29.2655 8.25 22.5 8.25C15.7345 8.25 10.25 13.7345 10.25 20.5C10.25 27.2655 15.7345 32.75 22.5 32.75ZM22.5 38C32.165 38 40 30.165 40 20.5C40 10.835 32.165 3 22.5 3C12.835 3 4.99998 10.835 4.99998 20.5C4.99998 30.165 12.835 38 22.5 38Z" fill="#5428F1"/>
<path d="M22.5 38C32.165 38 40 30.165 40 20.5H34.75C34.75 27.2655 29.2655 32.75 22.5 32.75V38Z" fill="#5428F1"/>
<path d="M4.99998 20.5C4.99998 10.835 12.835 3 22.5 3V8.25C15.7345 8.25 10.25 13.7345 10.25 20.5H4.99998Z" fill="#5428F1"/>
</svg>
